<?xml version="1.0" standalone="no"?>
<!DOCTYPE svg PUBLIC "-//W3C//DTD SVG 1.1//EN" "http://www.w3.org/Graphics/SVG/1.1/DTD/svg11.dtd" >
<svg xmlns="http://www.w3.org/2000/svg">
<metadata>Generated by IcoMoon</metadata>
<defs>
<font id="icomoon" horiz-adv-x="1024">
<font-face units-per-em="1024" ascent="960" descent="-64" />
<missing-glyph horiz-adv-x="1024" />
<glyph unicode="&#x20;" horiz-adv-x="512" d="" />
<glyph unicode="&#xe900;" glyph-name="angle-down" horiz-adv-x="658" d="M614.286 530.286c0-4.571-2.286-9.714-5.714-13.143l-266.286-266.286c-3.429-3.429-8.571-5.714-13.143-5.714s-9.714 2.286-13.143 5.714l-266.286 266.286c-3.429 3.429-5.714 8.571-5.714 13.143s2.286 9.714 5.714 13.143l28.571 28.571c3.429 3.429 8 5.714 13.143 5.714 4.571 0 9.714-2.286 13.143-5.714l224.571-224.571 224.571 224.571c3.429 3.429 8.571 5.714 13.143 5.714s9.714-2.286 13.143-5.714l28.571-28.571c3.429-3.429 5.714-8.571 5.714-13.143z" />
<glyph unicode="&#xe901;" glyph-name="angle-up" horiz-adv-x="658" d="M614.286 274.286c0-4.571-2.286-9.714-5.714-13.143l-28.571-28.571c-3.429-3.429-8-5.714-13.143-5.714-4.571 0-9.714 2.286-13.143 5.714l-224.571 224.571-224.571-224.571c-3.429-3.429-8.571-5.714-13.143-5.714s-9.714 2.286-13.143 5.714l-28.571 28.571c-3.429 3.429-5.714 8.571-5.714 13.143s2.286 9.714 5.714 13.143l266.286 266.286c3.429 3.429 8.571 5.714 13.143 5.714s9.714-2.286 13.143-5.714l266.286-266.286c3.429-3.429 5.714-8.571 5.714-13.143z" />
<glyph unicode="&#xe902;" glyph-name="angle-right" horiz-adv-x="347" d="M340 402.286c0-4.571-2.286-9.714-5.714-13.143l-266.286-266.286c-3.429-3.429-8.571-5.714-13.143-5.714s-9.714 2.286-13.143 5.714l-28.571 28.571c-3.429 3.429-5.714 8-5.714 13.143 0 4.571 2.286 9.714 5.714 13.143l224.571 224.571-224.571 224.571c-3.429 3.429-5.714 8.571-5.714 13.143s2.286 9.714 5.714 13.143l28.571 28.571c3.429 3.429 8.571 5.714 13.143 5.714s9.714-2.286 13.143-5.714l266.286-266.286c3.429-3.429 5.714-8.571 5.714-13.143z" />
<glyph unicode="&#xe903;" glyph-name="angle-left" horiz-adv-x="384" d="M358.286 640c0-4.571-2.286-9.714-5.714-13.143l-224.571-224.571 224.571-224.571c3.429-3.429 5.714-8.571 5.714-13.143s-2.286-9.714-5.714-13.143l-28.571-28.571c-3.429-3.429-8.571-5.714-13.143-5.714s-9.714 2.286-13.143 5.714l-266.286 266.286c-3.429 3.429-5.714 8.571-5.714 13.143s2.286 9.714 5.714 13.143l266.286 266.286c3.429 3.429 8.571 5.714 13.143 5.714s9.714-2.286 13.143-5.714l28.571-28.571c3.429-3.429 5.714-8 5.714-13.143z" />
<glyph unicode="&#xe904;" glyph-name="add" d="M422.4 748.8v-211.2h-422.4v-179.2h422.4v-422.4h179.2v422.4h422.4v179.2h-422.4v422.4h-179.2v-211.2z" />
<glyph unicode="&#xe905;" glyph-name="calendar" d="M238.002 900.422c-1.241-0.931-2.172-19.239-2.172-40.339v-38.167h-37.857c-21.101 0-47.166-1.552-58.027-3.103-50.89-8.378-91.85-47.787-102.4-98.676-4.965-23.273-4.655-608.194 0-631.156 10.55-50.269 50.269-89.367 100.228-98.366 25.755-4.655 722.696-4.655 748.451 0 49.959 8.999 89.678 48.097 100.228 98.366 4.655 22.962 4.965 607.884 0 631.156-10.55 50.89-51.51 90.298-102.4 98.676-10.861 1.552-36.926 3.103-57.716 3.103h-37.857l-0.931 39.719-0.931 39.408-63.612 1.862v-80.989h-422.012v80.679h-30.41c-16.756 0-31.651-0.931-32.582-2.172zM235.83 736.582v-20.17h65.164v40.339h422.012v-40.339h65.164v40.339h44.373c47.787 0 61.44-3.724 75.714-18.928 13.653-14.895 16.446-27.617 16.446-75.714v-44.994h-825.406v44.994c0 48.097 2.793 60.819 16.446 75.714 14.274 15.205 27.927 18.928 76.024 18.928h44.063v-20.17zM924.703 327.913c0-214.419-0.31-228.073-5.896-239.864-6.827-14.895-16.756-24.514-31.961-31.030-10.24-4.034-53.993-4.655-374.846-4.655s-364.606 0.621-374.846 4.655c-15.205 6.516-25.135 16.136-31.961 31.030-5.585 11.792-5.896 25.445-5.896 239.864v227.142h825.406v-227.142zM571.888 368.252l-100.228-100.228-80.679 80.679-22.342-22.652-22.652-22.342 125.673-125.673 246.691 246.691-21.721 21.721c-11.792 11.792-22.342 21.721-23.273 21.721s-46.545-44.994-101.469-99.918z" />
<glyph unicode="&#xe906;" glyph-name="f-chat" d="M34.133 544.194v-335.127h299.442l87.816-110.158c48.407-60.509 89.367-110.158 90.608-110.158s42.201 49.648 90.608 110.158l87.816 110.158h299.442v670.255h-955.733v-335.127zM924.703 542.642v-271.515h-266.861l-71.99-89.988c-39.408-49.648-72.921-89.988-73.852-89.988s-34.444 40.65-73.852 89.988l-71.99 89.988h-266.861v543.030h825.406v-271.515zM279.273 645.042v-32.582h465.455v65.164h-465.455v-32.582zM279.273 441.794v-31.030h304.097v62.061h-304.097v-31.030z" />
<glyph unicode="&#xe907;" glyph-name="left-arrow" d="M254.4 704l-256-256 513.6-513.6 92.8 92.8-356.8 356.8h776v128h-776l358.4 358.72-46.4 44.48c-25.6 24.64-47.040 44.8-48 44.8s-116.8-115.2-257.6-256z" />
<glyph unicode="&#xe908;" glyph-name="search" d="M356.267 915.627c-194.133-37.12-328.533-209.067-316.587-403.2 3.413-55.467 15.787-101.12 41.387-151.893 50.347-101.547 138.24-171.947 249.6-200.96 39.253-9.813 48.213-10.667 106.667-8.96 48.213 1.707 71.253 4.267 93.867 11.093 30.72 9.387 91.733 37.12 106.667 48.64 8.107 6.4 14.080 1.28 131.413-115.627l122.453-122.453 47.787 48.213 48.213 47.787-122.453 122.453c-116.907 117.333-122.027 123.307-115.627 131.413 11.52 14.933 39.253 75.947 48.64 106.667 6.827 22.613 9.387 45.653 11.093 93.867 1.707 58.453 0.853 67.413-8.96 106.667-20.907 81.067-66.987 154.027-130.56 205.653-34.987 28.587-102.4 62.72-147.2 74.24-43.947 11.093-125.013 14.507-166.4 6.4zM500.053 819.627c130.56-33.28 221.013-150.613 221.013-286.293 0-164.693-129.707-294.4-293.973-294.4-51.627 0-86.613 8.107-132.693 30.72-29.44 14.507-43.52 25.173-74.667 56.747-31.573 31.147-42.24 45.227-56.747 74.667-22.613 46.080-30.72 81.067-30.72 132.693 0 112.213 62.72 213.76 163.413 264.533 58.027 29.44 139.52 37.973 204.373 21.333z" />
<glyph unicode="&#xe909;" glyph-name="check-small" d="M925.44 793.088c-4.096-3.072-127.232-124.672-273.408-270.592-145.92-145.92-266.752-265.216-268.032-265.216s-65.024 62.464-141.312 138.496c-100.864 100.608-142.080 140.288-150.272 144.128s-16.384 5.376-28.672 5.376c-21.248 0-36.608-7.168-52.736-24.832l-11.008-11.776v-61.696l170.24-170.496c93.696-93.696 174.336-172.8 179.2-176.128 7.68-4.864 12.288-5.632 34.56-5.632s26.88 0.768 34.56 5.888c4.864 3.072 143.104 139.776 307.2 303.872l298.24 298.24v61.952l-10.752 11.52c-19.968 20.992-23.808 22.528-53.76 22.528-22.784-0.256-27.392-1.024-34.048-5.632z" />
<glyph unicode="&#xe90a;" glyph-name="close" d="M41.984 956.16c-1.024-2.048-3.072-3.84-4.864-3.84-4.608 0-29.44-22.784-29.44-26.88 0-1.792-1.792-3.84-3.84-4.864-5.632-2.048-5.632-75.264 0-77.312 2.048-1.024 3.84-3.072 3.84-5.12s86.528-89.856 192-195.584c105.728-105.728 192-193.28 192-194.56s-86.272-88.832-192-194.56c-105.472-105.728-192-193.536-192-195.584s-1.792-4.096-3.84-5.12c-5.632-2.048-5.632-75.264 0-77.312 2.048-1.024 3.84-3.072 3.84-4.864 0-4.096 24.832-26.88 29.44-26.88 1.792 0 3.84-1.792 4.864-3.84 2.048-5.632 71.936-5.632 74.24 0 0.768 2.048 3.072 3.84 5.12 3.84 2.304 0 90.88 87.040 197.376 193.28l193.28 193.28 193.28-193.28c106.496-106.24 195.072-193.28 197.376-193.28 2.048 0 4.352-1.792 5.12-3.84 2.304-5.632 72.192-5.632 74.24 0 1.024 2.048 3.072 3.84 4.864 3.84 4.608 0 29.44 22.784 29.44 26.88 0 1.792 1.792 3.84 3.84 4.864 3.072 1.024 3.84 7.936 3.84 38.656s-0.768 37.632-3.84 38.656c-2.048 1.024-3.84 3.072-3.84 5.12s-86.272 89.856-192 195.584c-105.472 105.728-192 193.28-192 194.56s86.528 88.832 192 194.56c105.472 105.728 192 193.536 192 195.584s1.792 4.096 3.84 5.12c5.632 2.048 5.632 75.264 0 77.312-2.048 1.024-3.84 3.072-3.84 4.864 0 4.096-24.832 26.88-29.44 26.88-1.792 0-3.84 1.792-4.864 3.84-1.024 3.072-7.68 3.84-37.12 3.84-29.184 0-35.84-0.768-37.12-3.84-0.768-2.048-3.072-3.84-5.12-3.84-2.304 0-90.88-87.040-197.376-193.28l-193.28-193.28-193.28 193.28c-106.496 106.24-195.072 193.28-197.376 193.28-2.048 0-4.352 1.792-5.12 3.84-1.28 3.072-7.936 3.84-37.12 3.84-29.44 0-36.096-0.768-37.12-3.84z" />
<glyph unicode="&#xe90b;" glyph-name="dashboard" d="M421.12 954.88c-53.76-9.472-87.552-20.48-132.352-42.496-37.888-18.688-54.272-28.672-85.248-51.968-107.008-80.128-178.176-196.608-199.936-327.936-4.864-29.696-4.864-139.264 0-168.96 9.984-59.136 20.736-91.648 51.968-154.88 29.952-60.416 87.808-128 147.968-173.056 30.976-23.296 47.36-33.28 85.248-51.968 45.568-22.528 85.504-35.072 138.752-43.776 33.536-5.376 135.424-5.376 168.96 0 53.248 8.704 93.184 21.248 138.752 43.776 37.888 18.688 54.272 28.672 85.248 51.968 96 71.68 168.704 182.016 193.28 293.376 8.448 37.12 10.24 58.624 10.24 119.040 0 103.168-10.496 148.224-55.552 239.36-29.952 60.416-87.808 128-147.968 173.056-30.976 23.296-47.36 33.28-85.248 51.968-45.568 22.528-85.504 35.072-138.752 43.776-35.84 5.632-140.8 5.12-175.36-1.28zM587.52 900.096c42.24-7.168 88.576-22.528 130.56-43.008 76.288-37.632 153.856-112.64 195.328-188.928 13.312-24.576 32.768-72.192 40.448-99.328 20.48-72.96 20.48-168.704 0-241.664-12.288-43.264-38.912-101.632-59.904-131.328-26.368-36.864-38.4-51.2-66.304-78.080-68.096-65.792-153.344-108.032-247.808-123.136-26.368-4.352-109.312-4.352-135.68 0-45.056 7.168-95.232 23.296-138.24 44.288-76.288 37.632-153.856 112.64-195.328 188.928-5.632 10.496-16.64 34.816-24.32 53.76-23.040 56.832-30.976 100.352-30.976 166.4s7.936 109.568 30.976 166.4c27.648 68.864 57.344 113.152 110.080 163.84 47.36 45.824 95.232 75.776 158.464 99.584 40.96 15.104 64.256 20.48 118.784 26.88 17.664 2.048 91.392-1.024 113.92-4.608zM461.056 738.56c-23.808-4.352-48.896-13.568-48.896-18.176 0-1.792 2.816-9.472 6.144-16.896s7.68-17.92 9.472-23.296c2.816-7.936 4.352-9.472 8.704-8.192 33.024 9.472 37.376 9.984 74.24 10.24 29.44 0 42.752-1.024 57.6-4.864 55.040-14.080 99.328-43.776 133.376-89.344 26.112-34.816 41.984-77.312 45.056-120.064l1.536-22.528h58.112v16.128c-0.256 50.688-25.6 118.528-61.184 164.864-27.648 35.84-70.144 70.144-106.752 86.528-28.672 12.8-56.064 22.016-77.568 25.6-26.112 4.608-74.24 4.608-99.84 0zM270.592 689.152l-19.712-19.968 160.512-160-6.144-12.288c-9.216-19.456-12.544-45.312-8.96-67.072 4.096-23.552 12.544-40.96 28.416-58.88 24.32-27.136 51.2-39.168 87.296-39.168s62.976 12.032 87.296 39.168c15.872 17.92 24.32 35.328 28.416 58.88 5.888 34.304-4.352 68.096-28.416 95.232-24.576 27.648-51.2 39.424-88.576 39.168-18.432-0.256-26.88-1.536-41.984-7.424l-18.944-6.912-79.616 79.616c-43.776 43.776-79.616 79.616-79.616 79.616s-8.96-8.96-19.968-19.968zM538.88 500.48c20.736-12.032 32.512-30.976 32.512-52.48 0-43.264-49.664-73.984-85.504-52.992-14.336 8.448-23.808 18.688-29.184 31.232-20.736 49.664 35.84 100.608 82.176 74.24zM229.376 526.848c-7.424-24.32-11.776-48.64-11.776-67.84v-13.568h58.88v11.776c0 6.4 2.56 23.552 5.376 37.632 3.072 14.336 5.632 28.16 5.888 30.72 0.256 3.584-5.376 6.4-25.088 13.312-14.080 4.864-25.6 8.96-25.856 8.96-0.512 0-3.584-9.472-7.424-20.992z" />
<glyph unicode="&#xe90c;" glyph-name="settings" d="M480.825 907.662c-26.624-7.282-50.972-25.031-65.536-47.787-11.15-17.522-13.198-25.031-14.564-56.434l-1.365-28.9-21.618-7.737c-11.833-4.096-26.396-9.785-32.085-12.288l-10.468-4.551-19.797 17.749c-29.355 26.169-53.931 36.409-86.699 36.409-68.722 0-121.287-56.661-110.82-119.467 4.096-24.576 13.198-40.505 36.636-63.26l20.48-20.025-9.785-20.252c-5.461-10.923-10.923-22.983-12.288-26.852l-2.276-6.599-30.492-1.365c-20.708-1.138-35.499-2.958-45.511-6.144-29.355-9.102-54.613-31.175-67.356-59.164-8.42-18.432-9.785-50.745-2.958-71.225 6.827-20.025 20.252-38.002 37.319-50.062 25.714-17.977 40.277-22.073 79.189-22.073h28.444l5.461-12.971c2.958-7.282 8.647-20.025 12.743-28.217l7.509-15.019-20.48-20.252c-13.426-13.198-22.756-24.804-27.079-33.451-33.451-66.674 14.108-143.36 92.16-148.821 34.816-2.276 65.081 8.42 92.388 32.768 26.396 23.666 23.211 22.073 32.085 17.522 4.096-2.276 18.204-7.737 31.403-12.516l23.893-8.42 1.138-29.355c1.138-28.217 1.365-30.037 9.785-46.649 18.66-38.002 57.116-60.985 101.717-60.985 45.056 0 84.651 24.348 103.083 63.033 6.599 14.336 7.282 17.749 8.42 44.828l1.138 29.127 23.893 8.42c13.198 4.779 27.307 10.24 31.403 12.516 8.875 4.551 5.689 6.144 32.085-17.522 27.307-24.348 57.572-35.044 92.388-32.768 78.052 5.461 125.611 82.148 92.16 148.821-4.324 8.647-13.653 20.252-27.079 33.451l-20.48 20.252 7.509 15.019c4.096 8.192 9.785 20.935 12.743 28.217l5.461 12.971h28.444c38.912 0 53.476 4.096 79.189 22.073 17.067 12.060 30.492 30.037 37.319 50.062 6.827 20.48 5.461 52.793-2.958 71.225-12.743 27.989-38.002 50.062-67.356 59.164-10.012 3.186-24.804 5.006-45.511 6.144l-30.492 1.365-2.276 6.599c-1.365 3.868-6.827 15.929-12.288 26.852l-9.785 20.252 20.48 20.025c14.336 13.881 22.528 24.121 27.307 33.678 34.588 70.315-19.115 149.049-101.49 149.049-32.768 0-57.344-10.24-86.699-36.409l-19.797-17.522-19.57 7.964c-10.695 4.324-25.259 9.785-32.085 11.833l-12.516 4.096-1.365 29.127c-1.365 31.63-3.413 39.14-14.564 56.661-14.791 23.211-38.912 40.732-66.446 47.787-16.156 4.324-45.739 4.096-61.44 0zM540.217 858.965c12.743-5.461 25.486-17.067 31.63-28.444 4.551-8.42 5.006-13.198 5.689-51.883 0.683-40.050 1.138-42.78 5.006-42.78 10.24 0 60.302-17.294 86.016-29.582l28.217-13.653 28.672 26.624c34.588 31.858 46.194 38.002 69.86 38.002 35.954 0 64.626-25.486 64.853-57.344 0-20.025-6.144-29.355-40.050-60.302-16.839-15.019-30.492-28.444-30.492-29.355 0-1.138 5.461-11.15 12.288-22.3 13.426-22.3 25.714-50.062 32.085-73.273l4.324-15.246 46.876-0.683c45.739-0.683 46.876-0.91 58.254-6.827 21.163-11.15 35.044-31.858 35.044-52.11 0-18.66-16.839-40.732-38.457-50.745-9.33-4.324-15.474-4.779-55.979-5.461l-45.511-0.683-4.324-14.108c-7.509-26.169-17.294-48.242-31.175-71.68-7.509-12.971-13.426-24.348-12.971-25.486 0.455-0.91 14.108-14.108 30.72-29.355 33.451-30.948 39.367-39.822 39.367-59.62-0.228-32.313-28.672-57.344-65.081-57.344-23.211 0-34.588 6.144-69.632 38.002l-28.672 26.396-28.217-13.426c-27.762-13.426-52.338-22.073-77.369-27.534l-12.743-2.958-0.91-42.325c-0.683-41.415-0.91-42.553-6.827-53.020-25.259-43.008-92.16-43.008-117.419 0-5.916 10.468-6.144 11.605-6.827 53.020l-0.91 42.325-12.743 2.958c-25.031 5.461-49.607 14.108-77.369 27.534l-28.217 13.426-28.672-26.396c-35.044-31.858-46.421-38.002-69.632-38.002-36.409 0-64.853 25.031-65.081 57.344 0 19.797 5.916 28.672 39.367 59.62 16.612 15.246 30.265 28.444 30.72 29.355 0.455 1.138-5.461 12.516-12.971 25.486-13.881 23.438-23.666 45.511-31.175 71.68l-4.324 14.108-45.511 0.683c-40.505 0.683-46.649 1.138-55.979 5.461-21.618 10.012-38.457 32.085-38.457 50.745 0 20.252 13.881 40.96 35.044 52.11 11.378 5.916 12.516 6.144 58.254 6.827l46.876 0.683 4.324 15.246c6.372 23.211 18.66 50.972 32.085 73.273 6.827 11.15 12.288 21.163 12.288 22.3 0 0.91-13.653 14.336-30.492 29.355-33.906 30.948-40.050 40.277-40.050 60.302 0.228 32.085 28.9 57.344 64.853 57.344 23.666 0 35.271-6.144 69.86-38.002l28.672-26.624 28.217 13.653c25.714 12.288 75.776 29.582 86.016 29.582 3.868 0 4.324 2.731 5.006 42.78 0.683 38.684 1.138 43.463 5.689 51.883 8.192 15.474 25.031 28.217 43.236 32.768 11.833 2.958 33.223 0.91 44.828-4.324zM473.316 582.030c-8.192-1.593-24.121-7.737-35.271-13.198-35.954-17.749-62.805-47.559-75.776-83.74-5.006-14.336-5.916-20.252-5.916-43.918 0-23.438 0.91-29.582 5.916-43.691 15.929-45.056 52.565-78.962 101.945-94.436 14.336-4.324 21.845-5.234 47.787-5.234s33.451 0.91 47.787 5.234c49.38 15.474 86.016 49.38 101.945 94.436 5.006 14.108 5.916 20.252 5.916 43.691 0 23.666-0.91 29.582-5.916 43.918-17.067 47.559-62.123 86.699-112.185 97.166-19.797 4.096-56.661 4.096-76.231-0.228zM537.714 536.747c32.54-6.827 61.668-29.127 75.093-57.344 9.102-19.342 11.15-45.739 5.006-64.398-16.384-49.607-73.5-80.782-127.431-69.86-36.409 7.509-64.171 27.762-78.734 57.799-7.282 14.336-7.737 16.839-7.737 38.229 0 20.935 0.683 23.893 7.282 38.229 21.163 44.373 74.183 68.494 126.521 57.344z" />
<glyph unicode="&#xe90d;" glyph-name="time" d="M428.373 926.208c-153.6-27.307-283.648-125.269-351.915-264.875-9.899-20.48-22.187-49.835-26.965-64.853-10.923-34.133-22.187-97.621-22.187-126.635v-21.845h34.133c24.917 0 34.133 1.024 34.133 4.437 0 11.264 7.168 67.584 10.581 82.603 32.427 150.528 150.528 273.749 300.032 313.685 139.264 37.547 286.379-0.341 390.485-100.693 60.416-57.685 96.939-120.149 118.101-199.68 28.331-108.203 7.509-229.717-56.32-327.68-24.235-37.205-78.507-92.501-115.712-117.419-114.347-76.459-253.611-91.136-384.683-40.619-24.917 9.557-78.165 39.253-88.064 48.811-3.755 4.096 1.707 12.971 33.792 55.296l38.229 50.859-13.312 2.389c-17.408 3.413-281.259 17.067-283.307 15.019-2.389-2.389 94.891-278.528 98.304-278.528 1.365 0 19.115 22.187 39.253 49.493 20.48 27.307 38.229 49.493 39.936 49.493 1.365 0 11.947-6.485 23.552-13.995 41.643-28.331 105.813-55.296 163.157-68.608 46.421-10.581 131.072-12.288 182.613-3.413 153.259 26.283 283.989 122.197 352.597 258.731 46.421 92.16 62.464 201.045 45.397 302.421-35.157 202.752-193.195 360.789-395.605 395.605-49.493 8.192-118.443 8.192-166.229 0zM477.867 570.88v-157.013h314.027v68.267h-245.76v245.76h-68.267v-157.013z" />
<glyph unicode="&#xe90e;" glyph-name="todo" horiz-adv-x="990" d="M279.893 938.382v-21.618h-279.893v-980.764h978.489v980.764h-279.893v43.236h-418.702v-21.618zM653.084 826.88v-87.609h-67.356l-6.599 15.246c-8.647 20.252-27.307 39.367-47.787 48.697-12.288 5.916-19.115 7.509-35.271 8.42-32.54 1.82-59.847-9.102-80.327-32.313-6.599-7.282-19.797-32.085-19.797-37.092 0-2.276-8.647-2.958-35.271-2.958h-35.271v175.218h327.68v-87.609zM279.893 780.231v-88.747h159.289v17.067c0 10.468 1.365 20.48 3.641 25.714 7.737 18.66 26.169 30.72 46.421 30.72 31.858 0 52.338-23.438 52.338-60.302v-13.198h157.013v177.493h234.382v-887.467h-887.467v887.467h234.382v-88.747zM537.031 347.876c-50.745-48.697-92.843-88.519-93.525-88.747-0.683 0-22.3 19.797-47.787 44.146l-46.421 44.373-15.246-15.246c-8.647-8.192-15.474-16.384-15.474-17.749s22.3-23.893 49.607-50.062c27.079-25.941 55.068-52.793 62.123-59.62l12.971-12.288 104.22 99.442c57.572 54.841 106.951 101.945 109.909 104.676l5.461 5.234-15.701 17.294c-8.647 9.557-16.156 17.067-16.839 17.067s-42.553-39.822-93.298-88.519z" />
<glyph unicode="&#xe90f;" glyph-name="users" d="M307.2 835.755c-69.973-18.091-126.635-68.608-148.48-133.461-3.072-9.216-7.851-34.816-10.24-56.661-7.168-58.368-25.6-94.891-74.411-145.408l-23.552-24.576 12.288-20.48c7.168-11.264 19.797-26.965 28.672-34.475 19.456-17.067 69.291-41.984 99.669-49.835 12.288-3.413 23.552-6.827 24.917-8.192s-30.72-15.019-71.68-30.72c-86.357-32.768-95.232-36.864-107.52-50.176-18.773-19.797-19.797-26.624-19.797-130.731v-95.573h682.667v95.573c0 104.107-1.024 110.933-19.797 130.731-12.288 13.312-21.163 17.408-107.52 50.176-40.96 15.701-73.045 29.355-71.68 30.72s12.629 4.779 24.917 8.192c30.379 7.851 80.213 32.768 99.669 49.835 8.875 7.509 21.504 23.211 28.672 34.475l12.288 20.48-23.552 24.576c-48.811 50.517-67.243 87.040-74.411 145.408-2.389 21.845-7.168 47.445-10.24 56.661-19.456 57.685-67.925 105.813-128.683 126.976-30.72 10.923-91.477 13.995-122.197 6.485zM382.635 768.853c45.397-8.533 84.309-37.888 102.4-76.8 7.851-16.725 11.264-29.696 13.653-55.296 5.12-55.637 19.115-91.136 55.296-141.653l19.115-26.624-15.36-8.875c-22.528-13.312-59.733-24.917-103.083-32.427-21.504-3.413-40.277-6.485-41.984-6.485-4.096 0-3.755-38.912 0.341-61.781 4.096-21.504 17.749-42.667 33.451-51.883 6.144-3.413 49.835-21.504 97.28-39.595l86.016-33.109 1.024-55.296 0.683-55.296h-546.133l0.683 54.955 1.024 55.296 85.333 33.109c47.104 18.091 90.112 35.499 95.573 38.229 13.995 7.509 24.235 19.115 31.061 35.157 6.485 16.043 11.264 80.213 5.461 80.213-1.707 0-20.821 3.072-42.325 6.485-43.349 7.509-80.555 19.115-103.083 32.427l-15.36 8.875 19.115 26.624c36.181 50.517 50.176 86.016 55.296 141.653 5.461 58.027 31.061 97.28 77.483 119.125 32.427 15.36 56.32 18.773 87.040 12.971zM645.803 835.072c-17.749-4.779-61.781-24.917-73.387-33.451-5.461-4.096-4.779-6.485 9.899-32.427 8.533-15.36 17.067-28.331 18.432-29.355 1.365-0.683 16.384 5.803 33.451 14.336 29.696 15.36 32.768 16.043 59.733 16.043 24.576 0 31.061-1.365 50.859-10.581 27.648-12.971 49.835-34.816 63.147-61.781 9.557-19.456 9.557-19.456 9.557-91.136 0-70.315-0.341-72.021-8.875-90.795-11.264-24.235-28.331-42.667-50.517-55.979l-17.408-10.24v-36.864c0-68.267 4.437-72.704 114.688-117.419l83.285-33.451v-141.653h-160.768l1.024-35.157 1.024-34.816 115.371-1.024 115.029-0.683v109.568c0 121.515-1.024 128.683-20.139 150.528-10.923 11.947-21.504 17.067-95.915 47.104-99.328 39.595-97.963 38.571-65.877 69.291 23.893 22.869 43.008 53.589 53.248 86.016 6.827 21.504 7.509 31.061 7.509 95.573 0 59.733-1.024 75.093-6.144 92.16-20.48 66.901-74.752 119.125-140.971 136.533-24.576 6.485-72.021 6.144-96.256-0.341z" />
<glyph unicode="&#xe910;" glyph-name="right-arrow" d="M464 915.2l-46.4-44.48 358.4-358.72h-776v-128h776l-356.8-356.8 92.8-92.8 513.6 513.6-256 256c-140.8 140.8-256.64 256-257.6 256s-22.4-20.16-48-44.8z" />
<glyph unicode="&#xe911;" glyph-name="down-angle" d="M48.269 704l-49.131-49.131 512.862-512.862 512.862 512.862-49.648 49.476-49.476 49.648-413.737-413.737-206.524 206.524c-113.433 113.433-206.696 206.352-207.213 206.352s-22.928-22.066-49.993-49.131z" />
<glyph unicode="&#xe912;" glyph-name="up-angle" d="M255.138 497.131l-256-256 49.648-49.476 49.476-49.648 413.737 413.737 413.737-413.737 49.476 49.648 49.648 49.476-256 256c-140.843 140.843-256.345 256-256.862 256s-116.019-115.157-256.862-256z" />
<glyph unicode="&#xe913;" glyph-name="info" d="M444.416 951.603c-15.77-8.602-29.491-22.733-36.25-37.478-4.915-10.65-5.734-14.95-5.734-29.901 0.205-14.746 1.024-19.251 5.939-29.286 7.168-14.746 22.733-30.31 37.888-37.683 10.035-4.915 13.926-5.734 29.901-5.734 15.565 0 20.070 0.819 29.696 5.325 15.77 7.578 28.877 19.866 37.069 35.021 6.554 12.288 6.963 13.926 6.963 33.382s-0.41 21.094-6.963 33.382c-7.987 14.746-20.275 26.419-35.635 34.202-9.011 4.506-13.107 5.12-30.925 5.12-19.046 0-21.504-0.614-31.949-6.349zM282.624 593.408c-4.301-1.024-10.445-5.325-15.77-11.059-8.806-9.011-8.806-9.421-8.806-24.166 0-17.818 3.277-24.371 16.384-33.382l8.806-6.144 191.898-1.229v-505.651h-94.618c-90.931 0-94.822-0.205-103.219-4.096-4.71-2.458-11.059-7.782-13.926-11.878-4.506-6.554-5.325-10.035-5.325-21.914 0-15.974 3.686-23.552 15.974-31.949l7.373-4.915h463.258l7.373 4.915c12.288 8.397 15.974 15.974 15.974 31.949 0 11.878-0.819 15.36-5.325 21.914-2.867 4.096-9.216 9.421-13.926 11.878-8.397 3.891-12.288 4.096-103.219 4.096h-94.618v556.442l-5.939 9.011c-12.083 18.227-3.891 17.203-137.421 17.613-64.717 0.205-121.037-0.41-124.928-1.434z" />
<glyph unicode="&#xe914;" glyph-name="timeline" d="M480.666 956.518c-0.819-0.614-1.434-108.339-1.434-239.002v-237.773l-84.992-0.819v-63.898l84.992-0.819 0.614-238.592 0.41-238.592h65.536v173.056h87.040v65.536h-87.040v542.72h87.040v65.536h-87.040v173.056l-31.949 0.614c-17.408 0.205-32.358-0.205-33.178-1.024zM698.368 752.128v-162.816h325.632v325.632h-325.632v-162.816zM960.512 752.128v-97.28h-196.608v194.56h196.608v-97.28zM2.048 446.976v-162.816h325.632v325.632h-325.632v-162.816zM262.144 446.976v-97.28h-196.608v194.56h196.608v-97.28zM698.368 141.824v-162.816h325.632v325.632h-325.632v-162.816zM960.512 141.824v-97.28h-196.608v194.56h196.608v-97.28z" />
<glyph unicode="&#xe915;" glyph-name="pen" d="M711.68 955.392c0-1.024-2.816-3.584-6.4-5.888-6.912-4.096-29.696-26.624-399.872-397.056-166.144-166.4-237.312-239.104-240.128-245.76-2.048-5.376-3.84-13.568-3.84-18.432s-1.024-9.472-2.304-10.24c-1.024-0.768-2.816-6.4-3.584-12.288-0.768-6.144-3.328-20.224-5.632-31.488s-5.888-29.184-7.68-39.68c-2.048-10.496-4.864-24.832-6.4-32-1.536-6.912-4.352-20.736-6.144-30.72-1.792-9.728-3.84-19.712-4.608-21.76-1.024-2.048-2.816-11.264-4.352-20.48-1.28-9.216-3.84-22.272-5.376-29.44-1.536-6.912-4.352-22.016-6.144-33.28-2.048-11.008-4.864-20.736-6.4-21.248-1.792-0.512-2.816-8.448-2.816-20.48 0-19.456 0-19.712 9.984-29.952 18.688-18.944 19.2-19.2 38.912-19.2 11.776 0 19.2 1.28 21.504 3.584 2.048 1.792 11.52 4.352 20.992 5.376s18.688 2.816 19.968 3.84c1.536 1.024 7.168 2.56 12.8 3.584 18.688 2.56 48.64 8.192 52.48 9.728 2.048 1.024 11.264 2.816 20.48 4.352 9.216 1.28 22.528 3.84 29.44 5.376 7.168 1.536 20.224 4.096 29.44 5.376 9.216 1.536 18.944 3.584 21.76 4.864 2.816 1.024 13.312 3.328 23.040 5.12 9.984 1.536 22.528 4.096 28.16 5.12 5.632 1.28 16.896 3.584 25.344 5.12 8.704 1.536 19.2 5.888 25.6 10.24 5.632 3.84 152.576 149.504 326.144 323.072l315.392 315.904v35.584l-134.144 133.12c-73.728 73.216-136.448 135.168-139.52 137.728-3.84 3.072-9.984 4.352-20.736 4.352-8.448 0-15.36-0.768-15.36-2.048zM868.608 619.008c-25.088-25.088-46.336-45.568-47.104-45.568-1.024 0-43.008 41.472-93.696 91.904l-92.16 91.904 92.672 92.672 185.6-185.6-45.312-45.312zM666.88 601.6l92.16-92.16-211.2-211.456c-116.224-116.224-214.016-212.736-217.6-214.528-3.584-2.048-13.824-4.352-23.040-5.376s-17.664-2.56-19.2-3.584c-1.28-0.768-10.496-2.816-20.48-4.608-9.728-1.536-23.552-4.352-30.72-5.888-6.912-1.536-21.504-4.352-32-6.4s-24.32-4.608-30.72-6.144c-6.4-1.28-19.456-3.84-29.44-5.376-9.728-1.792-20.224-4.096-23.040-5.376-2.816-1.024-8.704-2.304-13.056-2.816l-7.936-1.024 2.304 10.24c1.28 5.888 4.096 19.712 6.144 30.976 2.304 11.264 5.12 25.6 6.4 32 1.536 6.4 4.096 19.712 5.888 29.44 1.792 9.984 3.84 19.712 4.608 21.76 1.024 2.048 2.304 7.424 2.816 11.52 0.768 4.352 3.328 17.408 5.632 29.44s5.376 29.184 6.656 38.4c1.536 9.216 3.84 19.456 5.632 23.040 2.56 5.632 423.68 430.080 426.752 430.080 0.768 0 42.752-41.472 93.44-92.16z" />
<glyph unicode="&#xe916;" glyph-name="group" horiz-adv-x="1280" d="M868.096 957.44c-64.768-13.568-124.672-59.392-152.32-116.224-21.248-43.776-25.856-76.288-23.808-169.216 1.024-54.272 2.048-67.072 6.656-84.48 13.568-51.456 46.080-97.024 89.344-125.44l10.752-7.168v-27.136c0-24.32-0.768-28.928-6.656-40.704-3.584-7.424-9.984-15.616-14.336-18.688-4.096-3.072-33.792-16.128-65.792-28.928-32.256-12.8-58.624-24.32-59.136-25.856-0.256-1.28 25.344-13.056 57.088-25.6 31.744-12.8 62.72-26.624 68.608-30.72 29.952-19.712 53.248-49.664 65.536-84.992l7.168-19.968v-88.32c0-85.248-0.768-94.72-8.192-114.176-1.024-3.072 25.6-3.584 197.888-3.584 188.416 0 199.936 0.256 209.664 4.864 12.288 5.632 20.224 13.824 25.6 26.368 3.328 8.192 3.84 27.904 3.84 139.008 0 123.392-0.256 130.048-5.12 139.264-2.56 5.376-8.192 12.8-12.544 16.128-4.096 3.584-51.712 24.064-105.728 45.568-53.76 21.504-102.656 41.472-108.288 44.288-25.856 12.544-34.56 30.208-34.56 69.888v23.552l11.008 6.4c39.424 23.552 74.496 71.68 89.344 123.392 5.632 19.712 5.888 24.064 5.888 107.52l-0.256 87.040-6.912 23.040c-22.528 72.448-73.216 124.928-142.592 147.712-21.248 6.912-28.672 7.936-57.6 8.704-18.176 0.512-38.4-0.256-44.544-1.536zM354.56 853.504c-28.672-4.096-48.896-10.24-74.24-22.784-56.32-27.648-97.28-77.312-114.432-138.752-5.376-18.688-5.632-25.344-5.888-105.728 0-97.536 0.768-103.936 20.224-144.64 14.848-31.232 36.864-58.368 64-78.336l22.016-16.384v-22.528c0-31.232-3.584-44.032-16.384-56.576-9.472-9.472-22.016-15.104-118.784-53.76-98.304-39.424-109.056-44.288-117.248-53.248-4.864-5.632-9.984-12.8-11.264-16.384-1.536-3.584-2.56-40.192-2.56-82.432 0-68.352 0.512-77.056 4.864-86.272 5.632-12.544 17.664-23.296 30.464-26.88 6.656-2.048 111.36-2.56 343.808-2.048l334.080 0.768 9.472 6.4c5.376 3.584 12.8 11.008 16.64 16.64l6.912 10.24 0.768 75.52c1.024 80.896 0 88.832-11.52 102.4-8.96 10.752-15.872 14.080-128.512 58.88-69.888 27.904-100.864 41.472-107.264 47.104-14.592 12.8-18.432 24.32-18.432 55.808v27.136l16.128 11.52c30.72 22.016 57.344 54.528 72.192 88.064 14.080 31.232 17.152 50.688 18.432 118.528 2.048 93.184-2.56 125.184-23.552 167.68-34.56 69.632-104.192 115.712-180.992 120.064-11.776 0.512-24.576 0.512-28.928 0z" />
<glyph unicode="&#xe917;" glyph-name="reload" d="M849.92 892.16c-61.44-61.44-65.536-65.024-70.4-61.44-8.192 5.632-60.416 37.12-61.696 37.12-0.768 0-7.936 3.072-15.872 6.656-36.608 16.64-79.616 29.184-119.552 34.56-64 8.448-79.36 9.216-103.424 4.864-7.936-1.28-23.040-3.584-33.536-4.864-26.368-3.328-65.024-12.288-78.080-18.176-2.816-1.28-7.936-3.072-11.52-3.84-22.784-6.144-84.992-38.912-111.616-58.624-5.888-4.352-13.312-9.728-16.384-11.776-14.848-9.984-67.584-61.696-76.288-74.752-2.048-3.328-5.12-6.912-6.912-8.448-4.864-4.096-35.328-50.176-40.96-62.208-2.816-5.888-5.888-10.752-6.912-10.752-1.28 0-2.048-1.28-2.048-2.816 0-2.56-8.448-23.040-13.056-31.232-1.28-2.56-5.376-14.080-8.96-25.6s-7.424-22.784-8.704-25.344c-1.28-2.304-3.072-9.984-4.096-17.152s-2.816-13.824-3.84-14.592c-3.584-2.048-2.816-17.408 1.28-27.136 4.352-10.24 15.616-22.272 24.064-25.344 3.328-1.28 12.544-2.304 20.48-2.304 27.392 0 41.728 16.128 47.872 53.76 1.024 6.4 2.816 12.8 3.84 14.080 1.024 1.536 2.816 6.656 3.84 11.52s2.816 10.496 4.096 12.8c1.28 2.048 4.608 9.728 7.424 16.64 2.816 7.168 6.144 14.592 7.424 16.64 16.384 31.232 31.232 53.504 51.2 76.8 89.6 104.192 218.624 149.248 358.656 125.44 9.216-1.536 18.944-3.84 21.76-5.12 2.816-1.024 9.728-3.328 15.36-4.608 22.784-5.888 50.944-18.176 78.848-34.56 9.472-5.376 17.152-10.24 17.152-10.496s-28.672-29.184-64-64.256c-35.072-35.072-64-65.28-64-66.816 0-1.792 3.84-3.584 8.448-4.608 4.352-0.768 18.688-3.072 31.232-5.12 12.8-2.304 32.768-5.632 44.8-7.68s32.768-5.632 46.080-7.68c46.848-7.68 88.576-14.592 110.848-18.176 77.312-13.056 110.848-18.688 127.232-21.504 7.68-1.28 17.408-2.56 21.248-2.56 7.424-0.256 7.424 0 6.144 12.032-0.768 6.656-3.328 22.784-5.376 35.84-2.304 12.8-5.888 34.304-7.936 47.36-2.304 12.8-5.632 33.28-7.68 45.312s-6.144 36.864-8.96 55.040c-3.072 18.432-6.912 42.496-8.96 53.76-1.792 11.264-5.376 32-7.68 46.080-7.424 44.288-11.264 66.304-12.544 72.96-0.768 3.584-2.048 10.752-2.816 16.128-1.024 6.656-2.816 9.472-5.888 9.472-2.304 0-33.792-29.44-69.632-65.28zM912.64 407.808c-2.816-0.768-5.632-2.048-6.4-3.072s-4.352-3.584-8.192-6.144c-8.96-5.632-16.128-19.456-19.712-38.912-1.792-8.448-4.096-17.664-5.376-20.48-1.024-2.816-4.608-12.544-7.936-21.76s-7.424-19.456-9.216-23.040c-1.792-3.584-3.328-7.168-3.328-8.192 0-3.328-27.136-47.616-38.912-63.488-24.576-32.768-61.184-66.816-97.024-90.368-16.128-10.752-58.368-32.512-62.72-32.512-1.792 0-6.4-1.792-10.24-3.84-4.096-2.048-9.216-3.84-11.264-3.84-2.304 0-5.12-1.024-6.4-2.304-2.304-2.304-9.728-4.096-40.96-10.24-40.96-7.936-81.152-9.984-109.824-5.376-8.448 1.28-22.528 3.584-30.976 4.864-20.224 3.328-40.448 7.936-43.52 10.496-1.28 1.024-6.656 2.816-11.52 3.84s-10.496 2.816-12.8 4.096c-2.048 1.024-13.824 6.656-26.112 12.544s-26.368 13.312-31.488 16.896c-5.12 3.328-10.24 6.144-11.776 6.144s27.136 29.696 63.232 65.792c60.16 60.16 65.28 65.792 60.928 69.12-2.56 1.792-7.68 3.328-11.52 3.328-4.096 0-13.056 1.28-20.224 2.816-6.912 1.536-23.552 4.352-36.352 6.4-13.056 2.048-33.792 5.376-46.336 7.424-12.288 2.048-32.512 5.632-45.312 7.68-38.144 6.4-66.56 11.264-89.6 15.104-25.344 4.352-58.112 9.728-101.12 16.64-16.896 2.816-33.536 5.888-36.864 6.912-5.888 1.792-5.888 1.536-4.608-12.032 1.28-13.312 4.352-32 13.312-82.944 4.608-26.368 8.96-52.224 16.64-101.12 3.072-18.944 7.168-43.776 8.96-55.040 2.048-11.264 5.376-31.488 7.68-44.8s5.632-34.048 7.424-46.080c2.048-12.032 4.096-24.064 4.864-26.88 1.024-2.816 2.304-10.496 3.072-17.152 0.768-6.912 2.56-12.288 4.096-12.288 1.28 0 32.256 29.952 68.864 66.816l66.56 66.816 18.176-12.032c17.664-12.032 75.264-42.24 79.872-42.24 1.28 0 5.888-1.536 10.24-3.584 12.032-5.376 39.68-14.336 44.032-14.336 2.048 0 5.888-1.024 8.448-2.56 15.104-8.704 136.704-16.384 165.632-10.496 7.168 1.28 22.528 4.096 34.56 6.4 27.392 4.608 46.592 9.216 49.92 11.776 1.536 1.024 6.656 2.816 11.52 3.84s10.496 2.816 12.8 4.096c2.048 1.024 8.448 4.096 14.080 6.4 18.688 7.68 62.976 29.696 66.048 32.768 1.792 1.792 7.68 5.888 13.312 9.216 44.544 26.624 101.12 83.2 134.912 134.4 23.040 35.328 55.808 106.24 55.808 121.6 0 2.56 1.024 5.376 2.304 6.144s3.072 7.68 4.096 15.616c0.768 7.68 2.816 14.592 4.096 15.36 3.072 2.048 3.072 20.992 0 22.784-1.28 0.768-3.072 4.352-3.84 7.936-4.352 17.152-33.536 30.72-54.016 25.088z" />
<glyph unicode="&#xe918;" glyph-name="process" horiz-adv-x="973" d="M841.933 888.32c-41.779-39.322-76.8-71.68-78.029-71.68-1.024 0-9.216 5.325-18.022 11.878-137.421 101.99-329.933 118.374-484.352 41.165-50.176-25.19-84.582-49.971-124.314-89.907-40.755-40.755-66.56-76.8-91.341-127.59-27.853-57.139-45.875-130.458-45.875-185.958v-18.227h85.197l2.458 28.262c4.71 53.862 16.589 96.051 40.755 143.565 8.192 16.384 21.094 38.502 28.672 49.152 17.203 23.962 53.453 62.054 75.571 79.258 131.482 102.605 309.862 109.978 447.283 18.637 8.397-5.53 16.179-10.854 16.998-11.674 1.024-0.819-32.154-33.587-73.728-72.704-41.37-39.117-75.571-71.885-75.981-72.704-0.205-0.819 3.482-2.048 8.192-2.662 28.877-3.686 382.771-40.96 383.386-40.141 0.41 0.41-3.277 84.787-8.192 187.187-4.915 102.605-8.806 190.669-9.011 196.198 0 5.325-0.819 9.626-1.843 9.626s-36.045-32.154-77.824-71.68zM441.344 573.952c-45.056-9.83-81.715-44.032-95.642-89.088-6.554-21.504-6.554-52.224 0-73.728 16.179-52.429 61.85-88.474 115.917-91.546 62.669-3.482 116.941 36.25 132.301 96.87 14.746 57.754-13.312 120.218-65.741 146.022-27.853 13.722-58.163 17.818-86.835 11.469zM851.968 435.917c0-18.227-5.734-57.958-11.469-81.101-31.949-126.362-127.181-228.557-250.88-270.131-95.027-31.744-199.475-24.371-288.768 20.275-21.504 10.854-45.466 25.19-56.525 33.792-4.71 3.686-4.71 3.686 72.090 75.776 42.394 39.731 76.595 72.499 76.186 72.909-1.229 1.434-390.758 42.189-391.987 41.165-1.638-1.638 16.384-389.939 18.227-391.782 0.819-0.614 36.25 31.539 78.643 71.475l77.21 72.909 11.469-8.806c148.89-114.483 362.291-125.952 524.493-27.853 35.635 21.504 57.549 38.707 88.678 69.222 84.378 83.149 132.301 189.85 139.878 311.296l1.434 22.938h-88.678v-12.083z" />
<glyph unicode="&#xe919;" glyph-name="task" horiz-adv-x="973" d="M23.552 956.518c-9.011-4.71-15.155-10.854-19.661-19.456-3.891-7.373-3.891-19.866-3.891-489.062s0-481.69 3.891-489.062c4.506-8.806 10.854-14.95 20.070-19.661 5.939-3.072 45.261-3.277 445.030-3.277 364.954 0 439.501 0.41 445.030 2.867 7.782 3.277 16.794 11.878 21.504 20.685 3.277 5.734 3.482 43.213 3.482 488.448s-0.205 482.714-3.482 488.448c-4.71 8.806-13.722 17.408-21.504 20.685-5.53 2.458-79.872 2.867-445.44 2.867-396.083-0.205-439.501-0.41-445.030-3.482zM256 767.488v-63.488h128.614l1.229 11.059c0.819 5.939 4.096 16.384 7.373 23.347 22.938 48.742 81.92 64.307 125.338 33.178 18.842-13.312 34.406-40.96 34.406-60.826v-6.758h131.072v126.976h124.928v-765.952h-679.936v765.952h126.976v-63.488zM512 424.448l-84.992-84.992-41.984 41.984c-23.142 23.142-43.008 41.984-44.032 41.984-2.662 0-60.416-57.754-60.416-60.416 0-3.686 119.398-121.242 126.976-125.133 9.216-4.506 27.034-4.506 37.888 0 5.939 2.458 36.864 32.154 111.616 106.701l103.424 103.424-30.72 30.72c-16.794 16.794-31.13 30.72-31.744 30.72s-39.322-38.298-86.016-84.992z" />
<glyph unicode="&#xe91a;" glyph-name="tenant" d="M236.544 956.109c-9.83-4.506-16.179-11.059-20.48-21.094-2.662-6.758-3.072-31.539-3.072-205.414v-197.632h86.016v342.016h425.984v-212.992h86.016v133.734c0 125.338-0.41 133.939-3.891 141.722-4.506 9.83-11.059 16.179-21.094 20.48-6.758 2.662-38.298 3.072-274.432 3.072-254.976 0-267.264-0.205-275.046-3.891zM583.475 617.165c-11.878-4.301-19.661-10.854-24.781-21.299l-4.71-9.626-0.614-282.010-0.41-282.214h-81.92v191.488c0 126.976-0.819 194.765-2.253 201.318-1.229 6.349-4.71 13.312-9.011 18.432-13.722 15.77 3.072 14.746-225.075 14.746-196.608 0-204.39-0.205-211.763-3.891-8.806-4.506-14.95-10.854-19.661-20.070-2.867-5.939-3.277-28.467-3.277-232.038 0-217.498 0.205-225.69 3.891-233.062 4.506-8.806 10.854-14.95 20.070-19.661 5.939-3.072 48.742-3.277 488.038-3.277s482.099 0.205 488.038 3.277c9.216 4.71 15.565 10.854 20.070 19.661 3.686 7.373 3.891 16.998 3.891 318.054 0 337.306 0.614 317.44-11.469 329.318-13.517 13.517 2.253 12.698-219.955 13.107-161.382 0.41-203.162 0-209.101-2.253zM851.968 448v-40.96h-124.928v81.92h124.928v-40.96zM296.96 276.992v-41.984h-124.928v83.968h124.928v-41.984zM851.968 276.992v-41.984h-124.928v83.968h124.928v-41.984zM296.96 107.008v-41.984h-124.928v83.968h124.928v-41.984zM851.968 107.008v-41.984h-124.928v83.968h124.928v-41.984z" />
<glyph unicode="&#xe91b;" glyph-name="bin" horiz-adv-x="985" d="M297.354 858.303v-78.769h-283.569v-177.231h933.415v177.231h-283.569v157.538h-366.277v-78.769zM612.431 832.703v-53.169h-263.877v106.338h263.877v-53.169zM896 690.919v-37.415h-831.015v74.831h831.015v-37.415zM108.702 279.94l0.591-247.729 4.529-12.209c12.603-33.674 41.748-62.425 74.831-73.846l13.194-4.529h557.292l13.194 4.529c33.083 11.422 62.228 40.172 74.831 73.846l4.529 12.209 0.591 247.729 0.394 247.532h-51.003l-0.591-239.655-0.591-239.852-4.726-11.815c-6.498-15.951-22.646-32.098-38.597-38.597l-11.815-4.726h-529.723l-11.815 4.726c-15.951 6.498-32.098 22.646-38.597 38.597l-4.726 11.815-0.591 239.852-0.591 239.655h-51.003l0.394-247.532zM297.354 297.072v-167.385h51.2v334.769h-51.2v-167.385zM454.892 297.072v-167.385h51.2v334.769h-51.2v-167.385zM612.431 297.072v-167.385h51.2v334.769h-51.2v-167.385z" />
</font>
</defs>
</svg>
